<?xml version="1.0" encoding="UTF-8"?>
<svg id="Layer_1" data-name="Layer 1" xmlns="http://www.w3.org/2000/svg" viewBox="0 0 891 215.71">
  <defs>
    <style>
      .cls-1 {
        fill: orange;
      }

      .cls-1,
      .cls-2 {
        stroke-width: 0px;
      }

      .cls-2 {
        fill: #fff;
      }
    </style>
  </defs>
  <path class="cls-2" d="M68.74,116.74v16.19H.18v-64.74h68.56v16.19H20.56v8.09h44.47v16.19H20.56v8.09h48.18Z" />
  <path class="cls-2" d="M158.32,68.18l-33.35,64.74h-18.53l-33.35-64.74h22.24l20.38,39.56,20.38-39.56h22.24Z" />
  <path class="cls-2" d="M232.56,116.74v16.19h-68.56v-64.74h68.56v16.19h-48.18v8.09h44.47v16.19h-44.47v8.09h48.18Z" />
  <path class="cls-2"
    d="M287.65,116.74h-24.55v16.19h-20.38v-64.74h50.96c13.79,0,25.02,10.89,25.02,24.28,0,8.15-4.16,15.38-10.53,19.78l11.25,20.68h-22.96l-8.8-16.19ZM263.1,100.55h26.87c4.6,0,8.34-3.63,8.34-8.09s-3.74-8.09-8.34-8.09h-26.87v16.19Z" />
  <path class="cls-2"
    d="M368.48,109.27v23.66h-20.38v-23.66l-30.57-41.09h24.09l16.68,22.41,16.68-22.41h24.09l-30.57,41.09Z" />
  <path class="cls-2" d="M473.8,84.36h-26.87v48.56h-20.38v-48.56h-26.87v-16.19h74.12v16.19Z" />
  <path class="cls-2"
    d="M558.41,68.18v64.74h-20.38v-24.28h-37.06v24.28h-20.38v-64.74h20.38v24.28h37.06v-24.28h20.38Z" />
  <path class="cls-2" d="M569.88,132.92v-64.74h20.38v64.74h-20.38Z" />
  <path class="cls-2" d="M681.39,68.18v64.74h-24.09l-35.21-38.44v38.44h-20.38v-64.74h22.24l37.06,40.46v-40.46h20.38Z" />
  <path class="cls-2"
    d="M775.68,98.75v34.17h-14.82v-2.83c-6.93,3.38-16.22,4.63-27.75,4.63-25.99,0-42.66-7.19-42.66-34.17,0-25.18,14.82-34.17,42.66-34.17,24.15,0,38.51,6.81,41.83,25.18h-22.86c-2.66-6.99-9.15-8.99-18.97-8.99-13.01,0-20.43,3.6-20.43,17.98s7.41,17.98,20.43,17.98c7.73,0,13.48-1.29,16.87-5.39h-15.06v-14.39h40.77Z" />
  <path class="cls-2" d="M802.43,68.18v18.14l-9.35,14.51h-6.54l4.67-14.51h-7.48v-18.14h18.69Z" />
  <path class="cls-2"
    d="M891,113.13h-.04c0,17.98-15.84,21.58-40.72,21.58s-40.77-3.6-40.77-23.38h20.38c0,7.19,8.41,7.19,20.38,7.19s20.2,0,20.2-5.39c0-6.33-8.7-5.91-20.44-6.3-.01,0-.03,0-.04,0h-.04c-24.87-.83-39.51-2.69-39.51-19.78s14.92-20.68,39.8-20.68,39.84,3.6,39.84,23.38h-20.38c0-7.19-7.42-7.19-19.46-7.19s-19.27,0-19.27,4.5c0,5.48,7.82,5.01,19.56,5.4.01,0,.03,0,.04,0h.04c24.86.83,40.44,2.69,40.44,20.68Z" />
  <path class="cls-2"
    d="M42.72,215.71C16.81,215.71.18,208.52.18,181.54c0-25.18,14.78-34.17,42.54-34.17s42.46,8.99,42.46,34.17c0,26.98-14.78,34.17-42.46,34.17ZM42.72,163.56c-12.98,0-20.37,3.6-20.37,17.98s7.39,17.98,20.37,17.98,20.28-3.6,20.28-17.98-7.16-17.98-20.28-17.98Z" />
  <path class="cls-2"
    d="M168.18,213.91h-25.87l-20.75-23.46-6.96,6.42v17.04h-20.33v-64.74h20.33v23.85l25.87-23.85h25.87l-30.53,28.15,32.38,36.59Z" />
  <path class="cls-2"
    d="M230.06,206.72h-35.78l-3.64,7.19h-22.25l32.61-64.74h22.23l32.65,64.74h-22.21l-3.61-7.19ZM212.08,171.22l-9.78,19.31h19.46l-9.68-19.31Z" />
  <path class="cls-2"
    d="M295.43,190.26v23.66h-20.33v-23.66l-30.49-41.09h24.02l16.63,22.41,16.63-22.41h24.02l-30.49,41.09Z" />
  <path class="cls-1"
    d="M326.72,182.08c1.2-.02,2.41-.04,3.61-.08,1.14-.03,2.28-.09,3.41-.15,1.16-.06,2.31-.14,3.47-.22,1-.07,1.99-.13,2.99-.22.96-.1,1.93-.22,2.88-.36,1.47-.23,2.95-.42,4.39-.76,1.62-.38,3.19-.94,4.62-1.83,1.19-.75,2.21-1.68,2.98-2.84,1.04-1.57,1.69-3.32,2.07-5.15.2-.96.42-1.93.58-2.9.14-.88.22-1.77.31-2.66.1-1.02.2-2.05.3-3.07.06-.59.12-1.18.15-1.78.04-.79.05-1.59.08-2.38.04-1.09.1-2.18.15-3.27,0-.16,0-.32,0-.48h.22c.02.94.03,1.88.08,2.82.06,1.23.14,2.45.22,3.68.07,1.04.12,2.09.23,3.12.14,1.36.33,2.71.51,4.06.21,1.59.54,3.15,1.03,4.67.47,1.43,1.09,2.78,2.03,3.96.82,1.03,1.82,1.84,2.98,2.47,1.78.97,3.68,1.55,5.67,1.89,1.3.22,2.6.42,3.91.59,1.11.14,2.23.21,3.34.3,1,.08,1.99.16,2.99.22,1.04.06,2.08.1,3.12.15,1.32.06,2.65.1,3.97.15.54.02,1.08.05,1.61.07.12,0,.24.04.36.12-.61.03-1.22.07-1.83.1-1.33.05-2.67.1-4,.15-.98.04-1.95.08-2.93.15-1.27.08-2.53.19-3.79.29-.69.05-1.39.08-2.08.16-.96.1-1.93.21-2.88.38-1.22.21-2.45.44-3.65.74-1.97.49-3.84,1.24-5.41,2.56-1.2,1.01-2.11,2.26-2.75,3.71-.52,1.16-.9,2.36-1.18,3.59-.24,1.07-.41,2.15-.57,3.23-.17,1.17-.3,2.35-.44,3.52-.04.31-.06.63-.08.94-.05,1.01-.1,2.02-.15,3.03-.07,1.26-.15,2.53-.22,3.79-.03.57-.05,1.14-.07,1.72,0,.11-.01.23-.02.34-.03,0-.06,0-.1,0-.03-.22-.09-.43-.1-.64-.03-.88-.05-1.76-.08-2.64-.04-1.01-.09-2.02-.15-3.03-.06-.91-.13-1.81-.22-2.72-.14-1.4-.26-2.8-.45-4.19-.28-2.05-.65-4.08-1.4-6.03-.48-1.27-1.11-2.45-2-3.5-1.42-1.69-3.29-2.66-5.34-3.34-1.35-.45-2.74-.78-4.15-.97-1.2-.16-2.39-.36-3.6-.5-.93-.11-1.87-.17-2.8-.23-1.31-.08-2.61-.15-3.92-.22-1.05-.06-2.1-.1-3.15-.15-1.15-.05-2.3-.1-3.45-.15-.43-.02-.86-.05-1.28-.07v-.15h0Z" />
  <g>
    <path class="cls-2"
      d="M705.34,182.98c0,5.27-1.89,9.77-5.67,13.5-3.78,3.73-8.33,5.6-13.65,5.6s-9.87-1.88-13.65-5.62c-3.78-3.75-5.67-8.28-5.67-13.58s1.88-9.87,5.65-13.6c3.77-3.73,8.32-5.6,13.68-5.6s10,1.87,13.73,5.6c3.73,3.73,5.6,8.3,5.6,13.7ZM699.92,183.03c0-4-1.32-7.4-3.97-10.2-2.64-2.8-5.96-4.2-9.94-4.2-2.88,0-5.41.73-7.6,2.2-2.19,1.47-3.86,3.52-4.99,6.15-.87,2-1.3,3.97-1.3,5.9s.43,3.93,1.3,6c1.17,2.6,2.85,4.62,5.04,6.08,2.19,1.45,4.71,2.17,7.55,2.17,3.04,0,5.7-.81,7.96-2.42,2.26-1.62,3.92-3.86,4.99-6.73.64-1.63.95-3.28.95-4.95Z" />
    <path class="cls-2"
      d="M737.22,201.38h-4.77v-3h-.1c-.74,1.27-1.87,2.2-3.39,2.8-1.52.6-3.12.9-4.79.9-3.15,0-5.79-.92-7.93-2.75-2.44-2.1-3.66-5.65-3.66-10.65v-15h5.22v15c0,2.7.52,4.82,1.56,6.35,1.04,1.53,2.83,2.3,5.37,2.3s4.35-.82,5.52-2.45c1.17-1.63,1.76-3.75,1.76-6.35v-14.85h5.22v27.7Z" />
    <path class="cls-2" d="M756.59,178.43h-4.57v22.95h-5.22v-22.95h-3.76v-4.75h3.76v-9.3h5.22v9.3h4.57v4.75Z" />
    <path class="cls-2" d="M808.84,201.38h-5.62l-18.37-28.6h-.1v28.6h-5.42v-37h5.92l18.07,28.15h.1v-28.15h5.42v37Z" />
    <path class="cls-2"
      d="M846.54,187.43c0,4-1.46,7.44-4.37,10.33-2.91,2.88-6.46,4.33-10.64,4.33s-7.65-1.44-10.59-4.33c-2.95-2.88-4.42-6.36-4.42-10.42s1.48-7.44,4.44-10.23c2.96-2.78,6.48-4.18,10.57-4.18s7.65,1.4,10.59,4.2c2.94,2.8,4.42,6.23,4.42,10.3ZM838.46,194.4c1.91-1.95,2.86-4.27,2.86-6.98s-.95-5-2.86-6.9-4.22-2.85-6.93-2.85-5.02.96-6.93,2.88c-1.91,1.92-2.86,4.23-2.86,6.93s.95,5.02,2.86,6.95c1.91,1.93,4.22,2.9,6.93,2.9s5.02-.98,6.93-2.93Z" />
    <path class="cls-2"
      d="M888.76,173.68l-10.29,27.7h-2.91l-6.02-18.65h-.1l-6.02,18.65h-2.86l-10.39-27.7h5.57l6.17,18h.1l5.77-18h3.41l5.77,18h.1l6.12-18h5.57Z" />
  </g>
  <path class="cls-1"
    d="M816.5,28.16c1.2-.02,2.41-.04,3.61-.08,1.14-.03,2.28-.09,3.41-.15,1.16-.06,2.31-.14,3.47-.22,1-.07,1.99-.13,2.99-.22.96-.1,1.93-.22,2.88-.36,1.47-.23,2.95-.42,4.39-.76,1.62-.38,3.19-.94,4.62-1.83,1.19-.75,2.21-1.68,2.98-2.84,1.04-1.57,1.69-3.32,2.07-5.15.2-.96.42-1.93.58-2.9.14-.88.22-1.77.31-2.66.1-1.02.2-2.05.3-3.07.06-.59.12-1.18.15-1.78.04-.79.05-1.59.08-2.38.04-1.09.1-2.18.15-3.27,0-.16,0-.32,0-.48h.22c.02.94.03,1.88.08,2.82.06,1.23.14,2.45.22,3.68.07,1.04.12,2.09.23,3.12.14,1.36.33,2.71.51,4.06.21,1.59.54,3.15,1.03,4.67.47,1.43,1.09,2.78,2.03,3.96.82,1.03,1.82,1.84,2.98,2.47,1.78.97,3.68,1.55,5.67,1.89,1.3.22,2.6.42,3.91.59,1.11.14,2.23.21,3.34.3,1,.08,1.99.16,2.99.22,1.04.06,2.08.1,3.12.15,1.32.06,2.65.1,3.97.15.54.02,1.08.05,1.61.07.12,0,.24.04.36.12-.61.03-1.22.07-1.83.1-1.33.05-2.67.1-4,.15-.98.04-1.95.08-2.93.15-1.27.08-2.53.19-3.79.29-.69.05-1.39.08-2.08.16-.96.1-1.93.21-2.88.38-1.22.21-2.45.44-3.65.74-1.97.49-3.84,1.24-5.41,2.56-1.2,1.01-2.11,2.26-2.75,3.71-.52,1.16-.9,2.36-1.18,3.59-.24,1.07-.41,2.15-.57,3.23-.17,1.17-.3,2.35-.44,3.52-.04.31-.06.63-.08.94-.05,1.01-.1,2.02-.15,3.03-.07,1.26-.15,2.53-.22,3.79-.03.57-.05,1.14-.07,1.72,0,.11-.01.23-.02.34-.03,0-.06,0-.1,0-.03-.22-.09-.43-.1-.64-.03-.88-.05-1.76-.08-2.64-.04-1.01-.09-2.02-.15-3.03-.06-.91-.13-1.81-.22-2.72-.14-1.4-.26-2.8-.45-4.19-.28-2.05-.65-4.08-1.4-6.03-.48-1.27-1.11-2.45-2-3.5-1.42-1.69-3.29-2.66-5.34-3.34-1.35-.45-2.74-.78-4.15-.97-1.2-.16-2.39-.36-3.6-.5-.93-.11-1.87-.17-2.8-.23-1.31-.08-2.61-.15-3.92-.22-1.05-.06-2.1-.1-3.15-.15-1.15-.05-2.3-.1-3.45-.15-.43-.02-.86-.05-1.28-.07v-.15h0Z" />
  <g>
    <path class="cls-2" d="M29.52,47.96h-5.62L5.52,19.36h-.1v28.6H0V10.96h5.92l18.07,28.15h.1V10.96h5.42v37Z" />
    <path class="cls-2"
      d="M65.66,33.76c0,.87-.05,1.73-.15,2.6h-23.04c.54,2.2,1.63,4.01,3.29,5.43,1.66,1.42,3.61,2.12,5.85,2.12,1.64,0,3.19-.42,4.64-1.25,1.46-.83,2.55-1.97,3.29-3.4h5.22c-1.07,2.83-2.81,5.11-5.22,6.83-2.41,1.72-5.12,2.58-8.13,2.58-3.92,0-7.25-1.45-10.01-4.35-2.76-2.9-4.14-6.32-4.14-10.25s1.37-7.47,4.12-10.3c2.74-2.83,6.12-4.25,10.14-4.25s7.25,1.4,10.01,4.2,4.14,6.15,4.14,10.05ZM60.44,32.36c-.13-2.27-1.1-4.18-2.89-5.75-1.79-1.57-3.82-2.35-6.1-2.35s-4.31.78-6.1,2.35c-1.79,1.57-2.75,3.48-2.89,5.75h17.97Z" />
    <path class="cls-2"
      d="M107.77,20.26l-10.29,27.7h-2.91l-6.02-18.65h-.1l-6.02,18.65h-2.86l-10.39-27.7h5.57l6.17,18h.1l5.77-18h3.41l5.77,18h.1l6.12-18h5.57Z" />
    <path class="cls-2"
      d="M150.99,37.46c0,3.3-1.07,5.99-3.21,8.08-2.14,2.08-4.87,3.12-8.18,3.12s-6.13-1.1-8.26-3.3c-2.13-2.2-3.19-4.98-3.19-8.35h5.42c0,1.9.53,3.49,1.61,4.78,1.07,1.28,2.54,1.92,4.42,1.92s3.3-.58,4.37-1.75c1.07-1.17,1.61-2.67,1.61-4.5,0-.9-.14-1.67-.43-2.33-.28-.65-.7-1.18-1.25-1.6-.55-.42-1.14-.78-1.76-1.08-.62-.3-1.31-.6-2.08-.9-.2-.07-.35-.12-.45-.15-1.3-.5-2.25-.88-2.84-1.12s-1.38-.62-2.38-1.12-1.74-.98-2.21-1.45c-.47-.47-.97-1.06-1.51-1.77-.54-.72-.91-1.54-1.13-2.48-.22-.93-.33-1.98-.33-3.15,0-2.83,1.01-5.22,3.04-7.15,2.02-1.93,4.48-2.9,7.35-2.9,3.11,0,5.66.94,7.66,2.83,1.99,1.88,2.99,4.38,2.99,7.48h-5.42c0-1.6-.47-2.89-1.4-3.88-.94-.98-2.21-1.48-3.82-1.48-1.34,0-2.5.5-3.49,1.5-.99,1-1.48,2.18-1.48,3.55,0,1.07.3,1.96.9,2.68.6.72,1.38,1.29,2.33,1.73.95.43,2.02.84,3.19,1.22,1.17.38,2.34.85,3.51,1.4,1.17.55,2.23,1.21,3.19,1.97.95.77,1.73,1.85,2.33,3.25.6,1.4.9,3.05.9,4.95Z" />
    <path class="cls-2" d="M162.89,17.06h-5.22v-6.1h5.22v6.1ZM162.89,47.96h-5.22v-27.7h5.22v27.7Z" />
    <path class="cls-2"
      d="M196.27,47.96h-5.22v-15.05c0-5.77-2.31-8.65-6.93-8.65-2.44,0-4.28.81-5.5,2.43-1.22,1.62-1.83,3.67-1.83,6.17v15.1h-5.22v-27.7h4.87v2.95h.1c1.87-2.47,4.58-3.7,8.13-3.7,4.45,0,7.73,1.65,9.84,4.95,1.17,1.8,1.76,4.17,1.76,7.1v16.4Z" />
    <path class="cls-2"
      d="M233.26,44.21c0,4.63-1.35,8.23-4.04,10.8-2.69,2.57-6.37,3.85-11.02,3.85-3.08,0-5.83-.77-8.26-2.3-2.43-1.53-4.24-3.68-5.45-6.45h5.82c1.87,2.67,4.52,4,7.93,4,3.18,0,5.6-.84,7.28-2.52,1.67-1.68,2.51-4.11,2.51-7.27h-.1c-2.11,2.9-5.3,4.35-9.59,4.35-4.02,0-7.5-1.44-10.44-4.33-2.95-2.88-4.42-6.33-4.42-10.33,0-2.13.5-4.2,1.51-6.2,1.27-2.63,3.09-4.68,5.45-6.12,2.36-1.45,5.03-2.18,8.01-2.18,1.77,0,3.54.34,5.3,1.03,1.76.68,3.19,1.66,4.29,2.92v-3.2h5.22v23.95ZM228.04,34.16c0-4.53-2.01-7.58-6.02-9.15-1.27-.5-2.49-.75-3.66-.75-2.68,0-4.95.97-6.83,2.9-1.87,1.93-2.81,4.25-2.81,6.95s.94,4.93,2.81,6.88c1.87,1.95,4.13,2.93,6.78,2.93,2.01,0,3.78-.53,5.32-1.58,1.54-1.05,2.71-2.49,3.51-4.33.6-1.3.9-2.58.9-3.85Z" />
    <path class="cls-2" d="M247.17,47.96h-5.22V10.96h5.22v37Z" />
    <path class="cls-2"
      d="M282.91,33.76c0,.87-.05,1.73-.15,2.6h-23.04c.54,2.2,1.63,4.01,3.29,5.43,1.66,1.42,3.61,2.12,5.85,2.12,1.64,0,3.19-.42,4.64-1.25,1.46-.83,2.55-1.97,3.29-3.4h5.22c-1.07,2.83-2.81,5.11-5.22,6.83-2.41,1.72-5.12,2.58-8.13,2.58-3.92,0-7.25-1.45-10.01-4.35-2.76-2.9-4.14-6.32-4.14-10.25s1.37-7.47,4.12-10.3c2.74-2.83,6.12-4.25,10.14-4.25s7.25,1.4,10.01,4.2c2.76,2.8,4.14,6.15,4.14,10.05ZM277.69,32.36c-.13-2.27-1.1-4.18-2.89-5.75-1.79-1.57-3.82-2.35-6.1-2.35s-4.31.78-6.1,2.35c-1.79,1.57-2.75,3.48-2.89,5.75h17.97Z" />
  </g>
</svg>