<?xml version="1.0" encoding="UTF-8" standalone="no"?>
<!-- Uploaded to: SVG Repo, www.svgrepo.com, Generator: SVG Repo Mixer Tools -->

<svg fill="#000000" width="651.44476" height="749.65002" viewBox="0 0 26.057791 29.986001" version="1.1" id="svg6"
   sodipodi:docname="tiktok.svg" inkscape:version="1.1.1 (3bf5ae0d25, 2021-09-20)"
   xmlns:inkscape="http://www.inkscape.org/namespaces/inkscape"
   xmlns:sodipodi="http://sodipodi.sourceforge.net/DTD/sodipodi-0.dtd" xmlns="http://www.w3.org/2000/svg"
   xmlns:svg="http://www.w3.org/2000/svg" xmlns:rdf="http://www.w3.org/1999/02/22-rdf-syntax-ns#"
   xmlns:cc="http://creativecommons.org/ns#" xmlns:dc="http://purl.org/dc/elements/1.1/">
   <defs id="defs10" />
   <sodipodi:namedview id="namedview8" pagecolor="#ffffff" bordercolor="#666666" borderopacity="1.0"
      inkscape:pageshadow="2" inkscape:pageopacity="0.0" inkscape:pagecheckerboard="0" showgrid="false"
      inkscape:zoom="0.515" inkscape:cx="-0.97087379" inkscape:cy="448.54369" inkscape:window-width="1920"
      inkscape:window-height="1010" inkscape:window-x="-6" inkscape:window-y="-6" inkscape:window-maximized="1"
      inkscape:current-layer="svg6" />
   <title id="title2">tiktok</title>
   <path
      d="m 13.685792,0.025 c 1.637,-0.025 3.262,-0.012 4.886,-0.025 0.054,2.031 0.878,3.859 2.189,5.213 l -0.002,-0.002 c 1.411,1.271 3.247,2.095 5.271,2.235 l 0.028,0.002 v 5.036 c -1.912,-0.048 -3.71,-0.489 -5.331,-1.247 l 0.082,0.034 c -0.784,-0.377 -1.447,-0.764 -2.077,-1.196 l 0.052,0.034 c -0.012,3.649 0.012,7.298 -0.025,10.934 -0.103,1.853 -0.719,3.543 -1.707,4.954 l 0.02,-0.031 c -1.652,2.366 -4.328,3.919 -7.3710003,4.011 h -0.014 c -0.123,0.006 -0.268,0.009 -0.414,0.009 -1.73,0 -3.347,-0.482 -4.725,-1.319 l 0.04,0.023 c -2.508,-1.509 -4.23799995,-4.091 -4.55799995,-7.094 l -0.004,-0.041 c -0.0250000032,-0.625 -0.037,-1.25 -0.012,-1.862 0.49,-4.779 4.49399995,-8.476 9.36099995,-8.476 0.547,0 1.0830003,0.047 1.6040003,0.136 l -0.056,-0.008 c 0.025,1.849 -0.05,3.699 -0.05,5.548 -0.423,-0.153 -0.9110003,-0.242 -1.4200003,-0.242 -1.868,0 -3.457,1.194 -4.045,2.861 l -0.009,0.03 c -0.133,0.427 -0.21,0.918 -0.21,1.426 0,0.206 0.013,0.41 0.037,0.61 l -0.002,-0.024 c 0.332,2.046 2.086,3.59 4.201,3.59 0.061,0 0.121,-10e-4 0.181,-0.004 h -0.009 c 1.4630003,-0.044 2.7330003,-0.831 3.4510003,-1.994 l 0.01,-0.018 c 0.267,-0.372 0.45,-0.822 0.511,-1.311 l 10e-4,-0.014 c 0.125,-2.237 0.075,-4.461 0.087,-6.698 0.012,-5.036 -0.012,-10.06 0.025,-15.083 z"
      id="path4" style="fill:#ffffff" />
   <metadata id="metadata827">
      <rdf:RDF>
         <cc:Work rdf:about="">
            <dc:title>tiktok</dc:title>
         </cc:Work>
      </rdf:RDF>
   </metadata>
</svg>