<?xml version="1.0" encoding="UTF-8" standalone="no"?>
<svg
   id="Layer_1"
   data-name="Layer 1"
   viewBox="0 0 272 36.38"
   version="1.1"
   sodipodi:docname="follow.svg"
   inkscape:version="1.2.2 (732a01da63, 2022-12-09)"
   xmlns:inkscape="http://www.inkscape.org/namespaces/inkscape"
   xmlns:sodipodi="http://sodipodi.sourceforge.net/DTD/sodipodi-0.dtd"
   xmlns="http://www.w3.org/2000/svg"
   xmlns:svg="http://www.w3.org/2000/svg">
  <sodipodi:namedview
     id="namedview25"
     pagecolor="#ffffff"
     bordercolor="#000000"
     borderopacity="0.25"
     inkscape:showpageshadow="2"
     inkscape:pageopacity="0.0"
     inkscape:pagecheckerboard="0"
     inkscape:deskcolor="#d1d1d1"
     showgrid="false"
     inkscape:zoom="4.4485294"
     inkscape:cx="132.7405"
     inkscape:cy="18.208264"
     inkscape:window-width="3440"
     inkscape:window-height="1369"
     inkscape:window-x="1912"
     inkscape:window-y="-8"
     inkscape:window-maximized="1"
     inkscape:current-layer="g18" />
  <defs
     id="defs4">
    <style
       id="style2">
      .cls-1 {
        fill: #faa41a;
        stroke-width: 0px;
      }
    </style>
  </defs>
  <g
     id="g18"
     transform="matrix(1,0,0,1.0105554,0,7.2613402e-6)">
    <path
       class="cls-1"
       d="m 15.5,11.312245 h 11.34 v 6.651836 H 15.48 V 35.999999 H 4.13 V 17.964081 H 0 V 11.312245 H 4.14 C 4.41,1.9811977 8.96,-1.8887746 29.94,0.87255842 V 8.4687905 C 17.47,6.7545057 15.69,7.4114772 15.51,11.312245 Z"
       id="path6" />
    <path
       class="cls-1"
       d="M 66.64,23.05 C 66.64,32.3 59.93,36 47.54,36 35.15,36 28.44,32.3 28.44,23.05 c 0,-9.25 6.71,-12.95 19.1,-12.95 12.39,0 19.1,3.7 19.1,12.95 z m -11.36,0 c 0,-4.63 -2.58,-6.48 -7.74,-6.48 -5.16,0 -7.74,1.85 -7.74,6.48 0,4.63 2.58,6.47 7.74,6.47 5.16,0 7.74,-1.85 7.74,-6.47 z"
       id="path8" />
    <path
       class="cls-1"
       d="M 69.59,35.999999 V -6.7725231e-6 H 80.95 V 35.999999 Z"
       id="path10" />
    <path
       class="cls-1"
       d="M 84.78,35.999999 V -6.7725231e-6 H 96.14 V 35.999999 Z"
       id="path12" />
    <path
       class="cls-1"
       d="m 137.26,23.05 c 0,9.25 -6.71,12.95 -19.1,12.95 -12.39,0 -19.1,-3.7 -19.1,-12.95 0,-9.25 6.71,-12.95 19.1,-12.95 12.39,0 19.1,3.7 19.1,12.95 z m -11.36,0 c 0,-4.63 -2.58,-6.48 -7.74,-6.48 -5.16,0 -7.74,1.85 -7.74,6.48 0,4.63 2.58,6.47 7.74,6.47 5.16,0 7.74,-1.85 7.74,-6.47 z"
       id="path14" />
    <path
       class="cls-1"
       d="M 191.59,11.02 182,35.999999 h -11.36 l -6.2,-16.338269 -6.19,16.338269 H 146.89 L 137.3,11.02 h 10.62 L 153.6,25.914519 159.28,11.02 H 169.6 L 175.28,25.914519 180.96,11.02 h 10.62 z"
       id="path16" />
  </g>
  <polygon
     class="cls-1"
     points="231.82 18 198.34 0 198.34 36 231.82 18"
     id="polygon20" />
  <polygon
     class="cls-1"
     points="272 18.38 238.52 .38 238.52 36.38 272 18.38"
     id="polygon22" />
</svg>
