<?xml version="1.0" encoding="UTF-8"?>
<svg id="Layer_1" data-name="Layer 1" xmlns="http://www.w3.org/2000/svg" version="1.1" viewBox="0 0 800 800">
  <defs>
    <style>
      .cls-1 {
        fill: #000;
        stroke-width: 0px;
      }
    </style>
  </defs>
  <path class="cls-1" d="M400,0C234.3,0,100,134.3,100,300s21.4,125.1,56.9,174.1c.6,1.2.7,2.5,1.5,3.6l200,300c9.3,13.9,24.9,22.3,41.6,22.3s32.3-8.3,41.6-22.3l200-300c.7-1.1.8-2.4,1.5-3.6,35.6-49,56.9-108.9,56.9-174.1C700,134.3,565.7,0,400,0ZM400,400c-55.2,0-100-44.8-100-100s44.8-100,100-100,100,44.8,100,100-44.8,100-100,100Z"/>
</svg>