<?xml version="1.0" encoding="utf-8"?>
<!-- Generator: Adobe Illustrator 28.3.0, SVG Export Plug-In . SVG Version: 6.00 Build 0)  -->
<svg version="1.1" id="svg5" xmlns:svg="http://www.w3.org/2000/svg" xmlns="http://www.w3.org/2000/svg"
	xmlns:xlink="http://www.w3.org/1999/xlink" x="0px" y="0px" viewBox="0 0 81.7 8.9"
	style="enable-background:new 0 0 81.7 8.9;" xml:space="preserve">
	<style type="text/css">
		.st0 {
			fill: #FFFFFF;
		}
	</style>
	<g>
		<path class="st0" d="M5.7,6.6H2.6v2.1H0V0.3h6.4c1.7,0,3.1,1.4,3.1,3.1c0,1.1-0.5,2-1.3,2.6l1.4,2.7H6.8L5.7,6.6z M2.6,4.5h3.4
		c0.6,0,1-0.5,1-1s-0.5-1-1-1H2.6V4.5z" />
		<path class="st0" d="M19.4,6.6v2.1h-8.6V0.3h8.6v2.1h-6.1v1h5.6v2.1h-5.6v1H19.4z" />
		<path class="st0" d="M29,6.6v2.1h-8.4V0.3h2.6v6.3H29z" />
		<path class="st0" d="M38.5,6.6v2.1h-8.6V0.3h8.6v2.1h-6.1v1h5.6v2.1h-5.6v1H38.5z" />
		<path class="st0"
			d="M46.9,7.8h-4.5l-0.5,0.9h-2.8l4.1-8.4H46l4.1,8.4h-2.8L46.9,7.8z M44.6,3.2l-1.2,2.5h2.5L44.6,3.2z" />
		<path class="st0" d="M60.6,6.1L60.6,6.1c0,2.3-2,2.8-5.1,2.8c-3.3,0-5.1-0.5-5.1-3h2.6c0,0.9,1.1,0.9,2.6,0.9c1.5,0,2.5,0,2.5-0.7
		c0-0.8-1.1-0.8-2.6-0.8c0,0,0,0,0,0s0,0,0,0c-3.1-0.1-5-0.3-5-2.6c0-2.2,1.9-2.7,5-2.7c3.3,0,5,0.5,5,3h-2.6c0-0.9-0.9-0.9-2.4-0.9
		c-1.5,0-2.4,0-2.4,0.6c0,0.7,1,0.6,2.5,0.7c0,0,0,0,0,0s0,0,0,0C58.7,3.6,60.6,3.8,60.6,6.1z" />
		<path class="st0" d="M70.5,6.6v2.1h-8.6V0.3h8.6v2.1h-6.1v1H70v2.1h-5.6v1H70.5z" />
		<path class="st0" d="M81.7,6.1L81.7,6.1c0,2.3-2,2.8-5.1,2.8c-3.3,0-5.1-0.5-5.1-3H74c0,0.9,1.1,0.9,2.6,0.9c1.5,0,2.5,0,2.5-0.7
		c0-0.8-1.1-0.8-2.6-0.8c0,0,0,0,0,0s0,0,0,0c-3.1-0.1-5-0.3-5-2.6c0-2.2,1.9-2.7,5-2.7c3.3,0,5,0.5,5,3H79c0-0.9-0.9-0.9-2.4-0.9
		c-1.5,0-2.4,0-2.4,0.6c0,0.7,1,0.6,2.5,0.7c0,0,0,0,0,0s0,0,0,0C79.7,3.6,81.7,3.8,81.7,6.1z" />
	</g>
</svg>