<?xml version="1.0" encoding="UTF-8" standalone="no"?>
<!-- Uploaded to: SVG Repo, www.svgrepo.com, Generator: SVG Repo Mixer Tools -->

<svg width="733.33331" height="733.33331" viewBox="0 0 21.999999 21.999999" fill="none" version="1.1" id="svg8"
   sodipodi:docname="instagram.svg" inkscape:version="1.1.1 (3bf5ae0d25, 2021-09-20)"
   xmlns:inkscape="http://www.inkscape.org/namespaces/inkscape"
   xmlns:sodipodi="http://sodipodi.sourceforge.net/DTD/sodipodi-0.dtd" xmlns="http://www.w3.org/2000/svg"
   xmlns:svg="http://www.w3.org/2000/svg">
   <defs id="defs12" />
   <sodipodi:namedview id="namedview10" pagecolor="#ffffff" bordercolor="#666666" borderopacity="1.0"
      inkscape:pageshadow="2" inkscape:pageopacity="0.0" inkscape:pagecheckerboard="0" showgrid="false"
      inkscape:zoom="0.2575" inkscape:cx="953.39806" inkscape:cy="524.27184" inkscape:window-width="1920"
      inkscape:window-height="1010" inkscape:window-x="-6" inkscape:window-y="-6" inkscape:window-maximized="1"
      inkscape:current-layer="svg8" />
   <path fill-rule="evenodd" clip-rule="evenodd"
      d="m 11,17 c 3.3137,0 6,-2.6863 6,-6 0,-3.31371 -2.6863,-6 -6,-6 -3.31371,0 -6,2.68629 -6,6 0,3.3137 2.68629,6 6,6 z m 0,-2 c 2.2091,0 4,-1.7909 4,-4 0,-2.20914 -1.7909,-4 -4,-4 -2.20914,0 -4,1.79086 -4,4 0,2.2091 1.79086,4 4,4 z"
      fill="#0f0f0f" id="path2" style="fill:#ffffff" />
   <path
      d="m 17,4 c -0.5523,0 -1,0.44772 -1,1 0,0.55228 0.4477,1 1,1 0.5523,0 1,-0.44772 1,-1 0,-0.55228 -0.4477,-1 -1,-1 z"
      fill="#0f0f0f" id="path4" style="fill:#ffffff" />
   <path fill-rule="evenodd" clip-rule="evenodd"
      d="M 0.65396,3.27606 C 0,4.55953 0,6.23969 0,9.6 v 2.8 c 0,3.3603 0,5.0405 0.65396,6.3239 0.57524,1.129 1.49312,2.0469 2.6221,2.6221 C 4.55953,22 6.23969,22 9.6,22 h 2.8 c 3.3603,0 5.0405,0 6.3239,-0.654 1.129,-0.5752 2.0469,-1.4931 2.6221,-2.6221 C 22,17.4405 22,15.7603 22,12.4 V 9.6 C 22,6.23969 22,4.55953 21.346,3.27606 20.7708,2.14708 19.8529,1.2292 18.7239,0.65396 17.4405,0 15.7603,0 12.4,0 H 9.6 C 6.23969,0 4.55953,0 3.27606,0.65396 2.14708,1.2292 1.2292,2.14708 0.65396,3.27606 Z M 12.4,2 H 9.6 C 7.88684,2 6.72225,2.00156 5.82208,2.0751 4.94524,2.14674 4.49684,2.27659 4.18404,2.43597 3.43139,2.81947 2.81947,3.43139 2.43597,4.18404 2.27659,4.49684 2.14674,4.94524 2.0751,5.82208 2.00156,6.72225 2,7.88684 2,9.6 v 2.8 c 0,1.7132 0.00156,2.8777 0.0751,3.7779 0.07164,0.8769 0.20149,1.3253 0.36087,1.6381 0.3835,0.7526 0.99542,1.3645 1.74807,1.748 0.3128,0.1594 0.7612,0.2893 1.63804,0.3609 C 6.72225,19.9984 7.88684,20 9.6,20 h 2.8 c 1.7132,0 2.8777,-0.0016 3.7779,-0.0751 0.8769,-0.0716 1.3253,-0.2015 1.6381,-0.3609 0.7526,-0.3835 1.3645,-0.9954 1.748,-1.748 0.1594,-0.3128 0.2893,-0.7612 0.3609,-1.6381 C 19.9984,15.2777 20,14.1132 20,12.4 V 9.6 C 20,7.88684 19.9984,6.72225 19.9249,5.82208 19.8533,4.94524 19.7234,4.49684 19.564,4.18404 19.1805,3.43139 18.5686,2.81947 17.816,2.43597 17.5032,2.27659 17.0548,2.14674 16.1779,2.0751 15.2777,2.00156 14.1132,2 12.4,2 Z"
      fill="#0f0f0f" id="path6" style="fill:#ffffff" />
</svg>