<?xml version="1.0" encoding="UTF-8"?>
<svg id="Layer_1" data-name="Layer 1" xmlns="http://www.w3.org/2000/svg" version="1.1" viewBox="0 0 891.4 211.2">
  <defs>
    <style>
      .cls-1 {
        fill: orange;
      }

      .cls-1, .cls-2 {
        stroke-width: 0px;
      }

      .cls-2 {
        fill: #fff;
      }
    </style>
  </defs>
  <path class="cls-1" d="M0,182.7c1.2,0,2.4,0,3.6,0,1.1,0,2.3,0,3.4-.1,1.2,0,2.3-.1,3.5-.2,1,0,2-.1,3-.2,1-.1,1.9-.2,2.9-.4,1.5-.2,3-.4,4.4-.8,1.6-.4,3.2-.9,4.6-1.8,1.2-.8,2.2-1.7,3-2.8,1-1.6,1.7-3.3,2.1-5.1.2-1,.4-1.9.6-2.9.1-.9.2-1.8.3-2.7.1-1,.2-2.1.3-3.1,0-.6.1-1.2.1-1.8,0-.8,0-1.6,0-2.4,0-1.1.1-2.2.1-3.3v-.5h.2c0,.9,0,1.9,0,2.8,0,1.2.1,2.4.2,3.7,0,1,.1,2.1.2,3.1.1,1.4.3,2.7.5,4.1.2,1.6.5,3.1,1,4.7.5,1.4,1.1,2.8,2,4,.8,1,1.8,1.8,3,2.5,1.8,1,3.7,1.6,5.7,1.9,1.3.2,2.6.4,3.9.6,1.1.1,2.2.2,3.3.3,1,0,2,.2,3,.2,1,0,2.1.1,3.1.1,1.3,0,2.6.1,4,.1.5,0,1.1,0,1.6,0,.1,0,.2,0,.4.1-.6,0-1.2,0-1.8.1-1.3,0-2.7.1-4,.1-1,0-2,0-2.9.1-1.3,0-2.5.2-3.8.3-.7,0-1.4,0-2.1.2-1,.1-1.9.2-2.9.4-1.2.2-2.5.4-3.6.7-2,.5-3.8,1.2-5.4,2.6-1.2,1-2.1,2.3-2.8,3.7-.5,1.2-.9,2.4-1.2,3.6-.2,1.1-.4,2.1-.6,3.2-.2,1.2-.3,2.4-.4,3.5,0,.3,0,.6,0,.9,0,1-.1,2-.1,3,0,1.3-.1,2.5-.2,3.8,0,.6,0,1.1,0,1.7,0,.1,0,.2,0,.3h-.1c0-.2,0-.4-.1-.6,0-.9,0-1.8,0-2.6,0-1,0-2-.1-3,0-.9-.1-1.8-.2-2.7-.1-1.4-.3-2.8-.5-4.2-.3-2.1-.6-4.1-1.4-6-.5-1.3-1.1-2.4-2-3.5-1.4-1.7-3.3-2.7-5.3-3.3-1.4-.4-2.7-.8-4.1-1-1.2-.2-2.4-.4-3.6-.5-.9-.1-1.9-.2-2.8-.2-1.3,0-2.6-.1-3.9-.2-1,0-2.1-.1-3.1-.1-1.1,0-2.3-.1-3.5-.1-.4,0-.9,0-1.3,0H0c0-.1,0-.1,0-.1Z"/>
  <g>
    <path class="cls-2" d="M708,183c0,5.3-1.9,9.8-5.7,13.5-3.8,3.7-8.3,5.6-13.7,5.6s-9.9-1.9-13.7-5.6c-3.8-3.8-5.7-8.3-5.7-13.6s1.9-9.9,5.7-13.6c3.8-3.7,8.3-5.6,13.7-5.6s10,1.9,13.7,5.6c3.7,3.7,5.6,8.3,5.6,13.7h0ZM702.5,183c0-4-1.3-7.4-4-10.2-2.6-2.8-6-4.2-9.9-4.2s-5.4.7-7.6,2.2-3.9,3.5-5,6.1c-.9,2-1.3,4-1.3,5.9s.4,3.9,1.3,6c1.2,2.6,2.8,4.6,5,6.1,2.2,1.4,4.7,2.2,7.5,2.2s5.7-.8,8-2.4c2.3-1.6,3.9-3.9,5-6.7.6-1.6,1-3.3,1-4.9h0Z"/>
    <path class="cls-2" d="M739.8,201.4h-4.8v-3h0c-.7,1.3-1.9,2.2-3.4,2.8s-3.1.9-4.8.9c-3.2,0-5.8-.9-7.9-2.8-2.4-2.1-3.7-5.6-3.7-10.6v-15h5.2v15c0,2.7.5,4.8,1.6,6.4s2.8,2.3,5.4,2.3,4.3-.8,5.5-2.4c1.2-1.6,1.8-3.8,1.8-6.4v-14.9h5.2v27.7h0Z"/>
    <path class="cls-2" d="M759.2,178.4h-4.6v22.9h-5.2v-22.9h-3.8v-4.8h3.8v-9.3h5.2v9.3h4.6v4.8Z"/>
    <path class="cls-2" d="M811.5,201.4h-5.6l-18.4-28.6h0v28.6h-5.4v-37h5.9l18.1,28.1h0v-28.1h5.4v37Z"/>
    <path class="cls-2" d="M849.1,187.4c0,4-1.5,7.4-4.4,10.3-2.9,2.9-6.5,4.3-10.6,4.3s-7.7-1.4-10.6-4.3c-3-2.9-4.4-6.4-4.4-10.4s1.5-7.4,4.4-10.2c3-2.8,6.5-4.2,10.6-4.2s7.7,1.4,10.6,4.2,4.4,6.2,4.4,10.3h0ZM841.1,194.4c1.9-1.9,2.9-4.3,2.9-7s-1-5-2.9-6.9-4.2-2.9-6.9-2.9-5,1-6.9,2.9-2.9,4.2-2.9,6.9,1,5,2.9,6.9,4.2,2.9,6.9,2.9,5-1,6.9-2.9Z"/>
    <path class="cls-2" d="M891.4,173.7l-10.3,27.7h-2.9l-6-18.6h0l-6,18.6h-2.9l-10.4-27.7h5.6l6.2,18h0l5.8-18h3.4l5.8,18h0l6.1-18h5.6Z"/>
  </g>
  <path class="cls-1" d="M819.1,28.1c1.2,0,2.4,0,3.6,0,1.1,0,2.3,0,3.4-.1,1.2,0,2.3-.1,3.5-.2,1,0,2-.1,3-.2,1-.1,1.9-.2,2.9-.4,1.5-.2,3-.4,4.4-.8,1.6-.4,3.2-.9,4.6-1.8,1.2-.8,2.2-1.7,3-2.8,1-1.6,1.7-3.3,2.1-5.1.2-1,.4-1.9.6-2.9.1-.9.2-1.8.3-2.7,0-1,.2-2.1.3-3.1,0-.6.1-1.2.2-1.8,0-.8,0-1.6,0-2.4,0-1.1,0-2.2.2-3.3v-.5h.2c0,.9,0,1.9,0,2.8,0,1.2.1,2.5.2,3.7,0,1,.1,2.1.2,3.1.1,1.4.3,2.7.5,4.1.2,1.6.5,3.1,1,4.7.5,1.4,1.1,2.8,2,4,.8,1,1.8,1.8,3,2.5,1.8,1,3.7,1.5,5.7,1.9,1.3.2,2.6.4,3.9.6,1.1.1,2.2.2,3.3.3,1,0,2,.2,3,.2,1,0,2.1.1,3.1.1,1.3,0,2.7.1,4,.1.5,0,1.1,0,1.6,0,.1,0,.2,0,.4.1-.6,0-1.2,0-1.8.1-1.3,0-2.7.1-4,.1-1,0-2,0-2.9.1-1.3,0-2.5.2-3.8.3-.7,0-1.4,0-2.1.2-1,.1-1.9.2-2.9.4-1.2.2-2.5.4-3.7.7-2,.5-3.8,1.2-5.4,2.6-1.2,1-2.1,2.3-2.8,3.7-.5,1.2-.9,2.4-1.2,3.6-.2,1.1-.4,2.2-.6,3.2-.2,1.2-.3,2.3-.4,3.5,0,.3,0,.6,0,.9,0,1,0,2-.2,3,0,1.3-.2,2.5-.2,3.8,0,.6,0,1.1,0,1.7,0,.1,0,.2,0,.3h0c0-.2,0-.4,0-.6,0-.9,0-1.8,0-2.6,0-1,0-2-.2-3,0-.9-.1-1.8-.2-2.7-.1-1.4-.3-2.8-.5-4.2-.3-2-.7-4.1-1.4-6-.5-1.3-1.1-2.5-2-3.5-1.4-1.7-3.3-2.7-5.3-3.3-1.3-.5-2.7-.8-4.2-1-1.2-.2-2.4-.4-3.6-.5-.9-.1-1.9-.2-2.8-.2-1.3,0-2.6-.1-3.9-.2-1,0-2.1-.1-3.2-.1-1.2,0-2.3-.1-3.5-.1-.4,0-.9,0-1.3,0h0c0-.1,0-.1,0-.1Z"/>
  <g>
    <path class="cls-2" d="M32.1,47.9h-5.6L8.1,19.3h0v28.6H2.6V10.9h5.9l18.1,28.2h.1V10.9h5.4v37h0Z"/>
    <path class="cls-2" d="M68.3,33.7c0,.9,0,1.7-.2,2.6h-23c.5,2.2,1.6,4,3.3,5.4,1.7,1.4,3.6,2.1,5.8,2.1s3.2-.4,4.6-1.2c1.5-.8,2.5-2,3.3-3.4h5.2c-1.1,2.8-2.8,5.1-5.2,6.8s-5.1,2.6-8.1,2.6-7.2-1.5-10-4.3c-2.8-2.9-4.1-6.3-4.1-10.2s1.4-7.5,4.1-10.3c2.7-2.8,6.1-4.2,10.1-4.2s7.2,1.4,10,4.2c2.8,2.8,4.1,6.1,4.1,10h0ZM63,32.3c-.1-2.3-1.1-4.2-2.9-5.8s-3.8-2.4-6.1-2.4-4.3.8-6.1,2.4c-1.8,1.6-2.8,3.5-2.9,5.8h18Z"/>
    <path class="cls-2" d="M110.4,20.2l-10.3,27.7h-2.9l-6-18.6h0l-6,18.6h-2.9l-10.4-27.7h5.6l6.2,18h0l5.8-18h3.4l5.8,18h0l6.1-18h5.6Z"/>
    <path class="cls-2" d="M153.6,37.4c0,3.3-1.1,6-3.2,8.1-2.1,2.1-4.9,3.1-8.2,3.1s-6.1-1.1-8.3-3.3c-2.1-2.2-3.2-5-3.2-8.3h5.4c0,1.9.5,3.5,1.6,4.8,1.1,1.3,2.5,1.9,4.4,1.9s3.3-.6,4.4-1.8c1.1-1.2,1.6-2.7,1.6-4.5s-.1-1.7-.4-2.3c-.3-.7-.7-1.2-1.2-1.6s-1.1-.8-1.8-1.1c-.6-.3-1.3-.6-2.1-.9-.2,0-.4-.1-.4-.1-1.3-.5-2.2-.9-2.8-1.1s-1.4-.6-2.4-1.1-1.7-1-2.2-1.5c-.5-.5-1-1.1-1.5-1.8-.5-.7-.9-1.5-1.1-2.5-.2-.9-.3-2-.3-3.1,0-2.8,1-5.2,3-7.1,2-1.9,4.5-2.9,7.4-2.9s5.7.9,7.7,2.8c2,1.9,3,4.4,3,7.5h-5.4c0-1.6-.5-2.9-1.4-3.9-.9-1-2.2-1.5-3.8-1.5s-2.5.5-3.5,1.5-1.5,2.2-1.5,3.5.3,2,.9,2.7c.6.7,1.4,1.3,2.3,1.7.9.4,2,.8,3.2,1.2s2.3.9,3.5,1.4,2.2,1.2,3.2,2c.9.8,1.7,1.9,2.3,3.3s.9,3,.9,5Z"/>
    <path class="cls-2" d="M165.5,17h-5.2v-6.1h5.2v6.1ZM165.5,47.9h-5.2v-27.7h5.2v27.7Z"/>
    <path class="cls-2" d="M198.9,47.9h-5.2v-15c0-5.8-2.3-8.6-6.9-8.6s-4.3.8-5.5,2.4-1.8,3.7-1.8,6.2v15.1h-5.2v-27.7h4.9v3h.1c1.9-2.5,4.6-3.7,8.1-3.7s7.7,1.6,9.8,5c1.2,1.8,1.8,4.2,1.8,7.1v16.4Z"/>
    <path class="cls-2" d="M235.9,44.2c0,4.6-1.4,8.2-4,10.8-2.7,2.6-6.4,3.8-11,3.8s-5.8-.8-8.3-2.3-4.2-3.7-5.4-6.5h5.8c1.9,2.7,4.5,4,7.9,4s5.6-.8,7.3-2.5c1.7-1.7,2.5-4.1,2.5-7.3h-.1c-2.1,2.9-5.3,4.3-9.6,4.3s-7.5-1.4-10.4-4.3c-2.9-2.9-4.4-6.3-4.4-10.3s.5-4.2,1.5-6.2c1.3-2.6,3.1-4.7,5.4-6.1,2.4-1.5,5-2.2,8-2.2s3.5.3,5.3,1c1.8.7,3.2,1.7,4.3,2.9v-3.2h5.2v24h0ZM230.6,34.1c0-4.5-2-7.6-6-9.1-1.3-.5-2.5-.8-3.7-.8-2.7,0-4.9,1-6.8,2.9-1.9,1.9-2.8,4.2-2.8,7s.9,4.9,2.8,6.9,4.1,2.9,6.8,2.9,3.8-.5,5.3-1.6c1.5-1,2.7-2.5,3.5-4.3.6-1.3.9-2.6.9-3.8h0Z"/>
    <path class="cls-2" d="M249.8,47.9h-5.2V10.9h5.2v37Z"/>
    <path class="cls-2" d="M285.5,33.7c0,.9,0,1.7-.1,2.6h-23c.5,2.2,1.6,4,3.3,5.4,1.7,1.4,3.6,2.1,5.9,2.1s3.2-.4,4.6-1.2c1.5-.8,2.5-2,3.3-3.4h5.2c-1.1,2.8-2.8,5.1-5.2,6.8s-5.1,2.6-8.1,2.6-7.2-1.5-10-4.3c-2.8-2.9-4.1-6.3-4.1-10.2s1.4-7.5,4.1-10.3c2.7-2.8,6.1-4.2,10.1-4.2s7.2,1.4,10,4.2c2.8,2.8,4.1,6.1,4.1,10h0ZM280.3,32.3c-.1-2.3-1.1-4.2-2.9-5.8s-3.8-2.4-6.1-2.4-4.3.8-6.1,2.4-2.8,3.5-2.9,5.8h18Z"/>
  </g>
  <path class="cls-1" d="M50.7,141.9c.5,0,1.1,0,1.6,0,.5,0,1,0,1.5,0,.5,0,1,0,1.5,0,.4,0,.9,0,1.3,0,.4,0,.8,0,1.3-.2.6-.1,1.3-.2,1.9-.3.7-.2,1.4-.4,2-.8.5-.3,1-.7,1.3-1.3.5-.7.7-1.5.9-2.3,0-.4.2-.9.3-1.3,0-.4,0-.8.1-1.2,0-.5,0-.9.1-1.4,0-.3,0-.5,0-.8,0-.4,0-.7,0-1.1,0-.5,0-1,0-1.4v-.2h0c0,.4,0,.8,0,1.3,0,.5,0,1.1,0,1.6,0,.5,0,.9.1,1.4,0,.6.1,1.2.2,1.8,0,.7.2,1.4.5,2.1.2.6.5,1.2.9,1.8.4.5.8.8,1.3,1.1.8.4,1.6.7,2.5.8.6,0,1.1.2,1.7.3.5,0,1,0,1.5.1.4,0,.9,0,1.3,0,.5,0,.9,0,1.4,0,.6,0,1.2,0,1.7,0,.2,0,.5,0,.7,0,0,0,.1,0,.2,0-.3,0-.5,0-.8,0-.6,0-1.2,0-1.8,0-.4,0-.9,0-1.3,0-.6,0-1.1,0-1.7.1-.3,0-.6,0-.9,0-.4,0-.8,0-1.3.2-.5,0-1.1.2-1.6.3-.9.2-1.7.5-2.4,1.1-.5.4-.9,1-1.2,1.6-.2.5-.4,1-.5,1.6-.1.5-.2,1-.2,1.4,0,.5-.1,1-.2,1.6,0,.1,0,.3,0,.4,0,.4,0,.9,0,1.3,0,.6,0,1.1,0,1.7,0,.3,0,.5,0,.8,0,0,0,.1,0,.2h0c0,0,0-.2,0-.3,0-.4,0-.8,0-1.2,0-.4,0-.9,0-1.3,0-.4,0-.8,0-1.2,0-.6-.1-1.2-.2-1.9-.1-.9-.3-1.8-.6-2.7-.2-.6-.5-1.1-.9-1.6-.6-.7-1.4-1.2-2.3-1.5-.6-.2-1.2-.3-1.8-.4-.5,0-1-.2-1.6-.2-.4,0-.8,0-1.2-.1-.6,0-1.1,0-1.7,0-.5,0-.9,0-1.4,0-.5,0-1,0-1.5,0-.2,0-.4,0-.6,0h0c0,0,0,0,0,0Z"/>
  <g>
    <path class="cls-2" d="M104.4,157.6v-1.9h44.7c.5,3.6,2.5,15.4,30.5,15.4s31.6-7.8,31.6-13.5v-.2c0-5.7-3.4-9.8-16.6-9.8h-17.3v-27.6h17.1c12.3,0,15-4.3,15-9s-2.3-11.4-30.3-11.4-28.7,9.7-29.2,12.4h-43.6v-2.1c0-11.6,6.3-39.9,66.2-39.9h10.5c59.7,0,69.2,18.5,69.2,32.8v1.2c0,13.6-10.3,20.7-21.1,23.5,12.3,2.8,25.4,11.4,25.4,29.5v1c0,19.5-11.5,44-73.4,44h-8.5c-61.7,0-70.1-30.7-70.1-44.5Z"/>
    <path class="cls-2" d="M317.1,177.9l-10.3,22.3h-43.1l61-128.4h56.8l62.9,128.4h-46l-10.5-22.3h-70.9ZM330.3,149.6h44.5l-22.5-48-22,48Z"/>
    <path class="cls-2" d="M511.8,71.8l39.5,79.9,40.4-79.9h55.5v128.4h-42.2v-82l-40.2,82h-29.9l-40-82v82h-41.5V71.8h58.4Z"/>
  </g>
  <path class="cls-1" d="M665.6,85.2c.9,0,1.7,0,2.6,0,.8,0,1.6,0,2.4-.1.8,0,1.7-.1,2.5-.2.7,0,1.4,0,2.1-.2.7,0,1.4-.2,2.1-.3,1.1-.2,2.1-.3,3.1-.5,1.2-.3,2.3-.7,3.3-1.3.9-.5,1.6-1.2,2.1-2,.7-1.1,1.2-2.4,1.5-3.7.1-.7.3-1.4.4-2.1.1-.6.2-1.3.2-1.9,0-.7.1-1.5.2-2.2,0-.4,0-.8.1-1.3,0-.6,0-1.1,0-1.7,0-.8,0-1.6.1-2.3v-.3h.2c0,.7,0,1.3,0,2,0,.9.1,1.8.2,2.6,0,.7,0,1.5.2,2.2.1,1,.2,1.9.4,2.9.2,1.1.4,2.3.7,3.3.3,1,.8,2,1.5,2.8.6.7,1.3,1.3,2.1,1.8,1.3.7,2.6,1.1,4.1,1.4.9.2,1.9.3,2.8.4.8.1,1.6.2,2.4.2.7,0,1.4.1,2.1.2.7,0,1.5,0,2.2.1.9,0,1.9,0,2.8.1.4,0,.8,0,1.2,0,0,0,.2,0,.3,0-.4,0-.9,0-1.3,0-1,0-1.9,0-2.9.1-.7,0-1.4,0-2.1.1-.9,0-1.8.1-2.7.2-.5,0-1,0-1.5.1-.7,0-1.4.2-2.1.3-.9.2-1.8.3-2.6.5-1.4.4-2.8.9-3.9,1.8-.9.7-1.5,1.6-2,2.7-.4.8-.6,1.7-.8,2.6-.2.8-.3,1.5-.4,2.3-.1.8-.2,1.7-.3,2.5,0,.2,0,.5,0,.7,0,.7,0,1.4-.1,2.2,0,.9-.1,1.8-.2,2.7,0,.4,0,.8,0,1.2,0,0,0,.2,0,.2h0c0-.2,0-.3,0-.5,0-.6,0-1.3,0-1.9,0-.7,0-1.4-.1-2.2,0-.7,0-1.3-.2-1.9-.1-1-.2-2-.3-3-.2-1.5-.5-2.9-1-4.3-.3-.9-.8-1.8-1.4-2.5-1-1.2-2.4-1.9-3.8-2.4-1-.3-2-.6-3-.7-.9-.1-1.7-.3-2.6-.4-.7,0-1.3-.1-2-.2-.9,0-1.9-.1-2.8-.2-.8,0-1.5,0-2.3-.1-.8,0-1.6,0-2.5-.1-.3,0-.6,0-.9,0h0c0-.1,0-.1,0-.1Z"/>
</svg>