<?xml version="1.0" encoding="UTF-8"?>
<svg id="Layer_1" data-name="Layer 1" xmlns="http://www.w3.org/2000/svg" viewBox="0 0 85.7 9.26">
  <defs>
    <style>
      .cls-1 {
        fill: #231f20;
        stroke-width: 0px;
      }
    </style>
  </defs>
  <path class="cls-1"
    d="M7.9,9.26c-5.12,0-7.9-.52-7.9-3.23v-.2h4.25v.2c0,.73,1.61.73,3.65.73,1.86,0,3.61,0,3.61-.5,0-.55-1.41-.57-3.05-.6h-.62C3.07,5.54.18,5.3.18,2.88S3.13,0,7.89,0c5.01,0,7.72.52,7.72,3.23v.2h-4.25v-.2c0-.7-1.19-.73-3.47-.73-1.69,0-3.44,0-3.44.38,0,.44,1.23.46,2.79.49h.7c4.75.12,7.85.38,7.85,2.9v.2h-.01c-.16,2.32-3.14,2.8-7.88,2.8ZM.56,6.37c.05.4.18.72.41,1,.29.35.73.61,1.34.82,1.13.38,2.8.54,5.58.54s4.35-.16,5.5-.51c1.27-.39,1.84-.99,1.84-1.95v-.2c-.03-.38-.17-.7-.43-.95-.29-.29-.74-.52-1.37-.7-1.34-.37-3.36-.44-5.49-.49h-.68c-.98-.03-1.72-.04-2.27-.14-.27-.05-1.1-.19-1.1-.9s.94-.81,1.29-.85c.65-.08,1.55-.08,2.69-.08s2.09,0,2.75.12c.26.05,1.01.18,1.21.81h3.2c-.05-.4-.18-.73-.39-1-.27-.34-.69-.61-1.28-.81-1.09-.38-2.73-.54-5.49-.54s-4.29.15-5.42.5c-1.21.37-1.75.94-1.75,1.85s.51,1.41,1.72,1.75c1.18.32,2.88.42,5.41.48h.63c.98.03,1.8.05,2.39.16.29.05,1.19.21,1.19,1,0,1.04-1.56,1.04-4.15,1.04-1.14,0-2.12,0-2.83-.12-.41-.07-.71-.18-.93-.33-.18-.13-.3-.29-.37-.48H.56Z" />
  <path class="cls-1"
    d="M7.89.2c4.9,0,7.52.47,7.52,3.03h-3.85c0-.93-1.4-.93-3.67-.93s-3.64,0-3.64.58c0,.71,1.48.65,3.69.7h.02c4.69.11,7.63.35,7.63,2.68h0c0,2.33-2.99,2.8-7.69,2.8S.2,8.6.2,6.03h3.85c0,.93,1.59.93,3.85.93s3.81,0,3.81-.7c0-.82-1.64-.77-3.86-.82h-.02c-4.69-.11-7.46-.35-7.46-2.56S3.19.2,7.89.2ZM2.41.84c-1.29.39-1.9,1.04-1.9,2.04s.58,1.58,1.87,1.94c1.2.33,2.91.43,5.46.49h.02c.21,0,.41,0,.61.01.95.02,1.77.03,2.36.14.44.08,1.03.25,1.03.81,0,.84-1.57.84-3.95.84-1.13,0-2.1,0-2.8-.12-.38-.07-.66-.16-.85-.3-.19-.13-.3-.31-.33-.51H.34c.02.54.18.97.48,1.33.31.37.78.66,1.43.88,1.15.38,2.84.55,5.64.55s4.39-.16,5.56-.52c1.35-.41,1.98-1.09,1.98-2.14v-.14h0c-.03-.47-.19-.84-.49-1.15-.32-.32-.8-.57-1.46-.75-1.36-.38-3.4-.45-5.54-.5h-.02c-.24,0-.48,0-.7-.01-.93-.02-1.67-.03-2.2-.12-.4-.07-.93-.21-.93-.71,0-.46.59-.59,1.11-.65.64-.07,1.53-.07,2.67-.07s2.07,0,2.71.12c.44.08,1.01.25,1.09.81h3.57c-.02-.54-.17-.97-.45-1.33-.3-.37-.75-.66-1.37-.88-1.11-.38-2.77-.55-5.55-.55S3.55.5,2.41.84Z" />
  <path class="cls-1"
    d="M27.37,9.03v-3.15h-6.6v3.15h-4.25V.23h4.25v3.15h6.6V.23h4.25v8.8h-4.25ZM31.08,8.49V.78h-3.17v3.15h-7.68V.78h-3.17v7.71h3.17v-3.15h7.68v3.15h3.17Z" />
  <path class="cls-1"
    d="M31.42.43v8.4h-3.85v-3.15h-7v3.15h-3.85V.43h3.85v3.15h7V.43h3.85ZM27.71.58v3.15h-7.28V.58h-3.57v8.12h3.57v-3.15h7.28v3.15h3.57V.58h-3.57Z" />
  <path class="cls-1"
    d="M40.53,9.26c-4.08,0-8.25-.55-8.25-4.63C32.28,1.43,34.83,0,40.53,0s8.24,1.43,8.24,4.63c0,3.84-3.29,4.63-8.24,4.63ZM40.53.54c-2.69,0-4.6.31-5.84.95-.63.33-1.09.73-1.4,1.24-.32.52-.47,1.14-.47,1.89,0,.8.17,1.45.52,1.99.33.51.81.92,1.48,1.24,1.24.59,3.06.87,5.72.87,1.37,0,2.49-.06,3.42-.2,1-.14,1.79-.36,2.41-.67.63-.31,1.09-.71,1.39-1.23.32-.53.47-1.19.47-2,0-.75-.15-1.37-.47-1.89-.31-.51-.77-.92-1.4-1.24-1.24-.64-3.15-.95-5.83-.95ZM40.53,7.3c-1.42,0-2.35-.16-3.01-.51-.8-.43-1.19-1.13-1.19-2.17s.39-1.74,1.19-2.17c.66-.35,1.58-.51,3.01-.51,2.17,0,4.18.32,4.18,2.67,0,1.03-.39,1.74-1.19,2.17-.65.35-1.58.51-2.99.51ZM40.53,2.5c-2.67,0-3.66.58-3.66,2.13s.99,2.13,3.66,2.13,3.64-.58,3.64-2.13-.95-2.13-3.64-2.13Z" />
  <path class="cls-1"
    d="M40.53.2c5.24,0,8.04,1.17,8.04,4.43,0,3.5-2.8,4.43-8.04,4.43-4.91,0-8.05-.93-8.05-4.43,0-3.26,2.8-4.43,8.05-4.43ZM34.6,1.32c-.67.34-1.15.78-1.48,1.32-.34.55-.5,1.21-.5,2,0,.84.18,1.52.55,2.09.35.54.86.97,1.56,1.31,1.27.61,3.11.89,5.81.89,1.38,0,2.5-.06,3.45-.2,1.02-.14,1.83-.37,2.47-.69.67-.33,1.15-.76,1.48-1.3.34-.57.5-1.25.5-2.1,0-.79-.16-1.44-.5-2-.33-.54-.81-.97-1.48-1.32-1.27-.66-3.21-.98-5.92-.98s-4.66.32-5.93.98ZM37.62,6.62c-.73-.39-1.08-1.04-1.08-1.99s.35-1.6,1.08-1.99c.63-.33,1.53-.48,2.92-.48,2.39,0,3.98.42,3.98,2.47,0,.95-.35,1.6-1.08,1.99-.62.33-1.52.48-2.9.48s-2.29-.15-2.92-.48ZM40.53,6.96c2.44,0,3.84-.47,3.84-2.33s-1.36-2.33-3.84-2.33-3.86.47-3.86,2.33,1.4,2.33,3.86,2.33Z" />
  <path class="cls-1"
    d="M61.51,9.03l-2.32-4.65-2.32,4.65h-4.45L48.02.23h4.64l2.38,4.75L57.42.23h3.54l2.38,4.75,2.38-4.75h4.64l-4.4,8.8h-4.45ZM65.62,8.49l3.86-7.71h-3.44l-2.71,5.42-2.71-5.42h-2.87l-2.71,5.42-2.71-5.42h-3.44l3.86,7.71h3.78l2.66-5.32,2.66,5.32h3.78Z" />
  <path class="cls-1"
    d="M70.03.43l-4.2,8.4h-4.2l-2.45-4.9-2.45,4.9h-4.2L48.34.43h4.2l2.5,5,2.5-5h3.29l2.5,5,2.5-5h4.2ZM65.92.58l-2.46,4.92-.12.25-.12-.25-2.46-4.92h-3.12l-2.46,4.92-.12.25-.12-.25-2.46-4.92h-3.88l4.06,8.12h4.02l2.41-4.82.12-.25.12.25,2.41,4.82h4.02l4.06-8.12h-3.88Z" />
  <path class="cls-1"
    d="M77.81,9.26c-5.12,0-7.9-.52-7.9-3.23v-.2h4.25v.2c0,.73,1.61.73,3.65.73,1.86,0,3.61,0,3.61-.5,0-.55-1.41-.57-3.05-.6h-.62c-4.78-.12-7.67-.36-7.67-2.78s2.95-2.88,7.71-2.88c5.01,0,7.72.52,7.72,3.23v.2h-4.25v-.2c0-.7-1.19-.73-3.47-.73-1.69,0-3.44,0-3.44.38,0,.44,1.23.46,2.79.49h.7c4.75.12,7.85.38,7.85,2.9v.2h-.02c-.16,2.32-3.14,2.8-7.88,2.8ZM70.47,6.37c.05.4.18.72.42,1,.29.35.73.61,1.34.82,1.13.38,2.8.54,5.58.54s4.35-.16,5.51-.51c1.27-.39,1.84-.99,1.84-1.95v-.19c-.03-.39-.17-.7-.43-.96-.29-.29-.74-.52-1.37-.7-1.34-.37-3.36-.44-5.49-.49h-.67c-.99-.03-1.73-.04-2.28-.14-.27-.05-1.1-.19-1.1-.9s.94-.81,1.29-.85c.65-.08,1.55-.08,2.69-.08s2.09,0,2.75.12c.26.05,1.01.18,1.21.81h3.2c-.04-.4-.17-.73-.39-1-.27-.34-.69-.61-1.28-.81-1.09-.38-2.73-.54-5.49-.54s-4.29.15-5.42.5c-1.21.37-1.75.94-1.75,1.85s.51,1.41,1.72,1.75c1.18.32,2.88.42,5.41.48h.63c.98.03,1.8.05,2.39.16.29.05,1.19.21,1.19,1,0,1.04-1.56,1.04-4.15,1.04-1.14,0-2.12,0-2.83-.12-.41-.07-.72-.18-.93-.33-.18-.13-.3-.29-.37-.48h-3.2Z" />
  <path class="cls-1"
    d="M77.8.2c4.9,0,7.52.47,7.52,3.03h-3.85c0-.93-1.4-.93-3.67-.93s-3.64,0-3.64.58c0,.71,1.48.65,3.69.7h.02c4.69.11,7.63.35,7.63,2.68h0c0,2.33-2.99,2.8-7.69,2.8s-7.7-.47-7.7-3.03h3.85c0,.93,1.59.93,3.85.93s3.81,0,3.81-.7c0-.82-1.64-.77-3.86-.82h-.02c-4.69-.11-7.46-.35-7.46-2.56s2.82-2.68,7.51-2.68ZM72.32.84c-1.29.39-1.9,1.04-1.9,2.04s.58,1.58,1.87,1.94c1.2.33,2.91.43,5.46.49h.02c.21,0,.41,0,.61.01.95.02,1.77.03,2.36.14.44.08,1.03.25,1.03.81,0,.84-1.57.84-3.95.84-1.13,0-2.1,0-2.79-.12-.38-.07-.66-.16-.85-.3-.19-.13-.3-.31-.33-.51h-3.58c.02.54.18.97.48,1.33.31.37.78.66,1.43.88,1.15.38,2.84.55,5.64.55s4.39-.16,5.56-.52c1.35-.41,1.98-1.09,1.98-2.14v-.14h0c-.03-.47-.19-.84-.49-1.15-.32-.32-.8-.57-1.46-.75-1.36-.38-3.4-.45-5.54-.5h-.02c-.24,0-.48,0-.7-.01-.93-.02-1.67-.03-2.2-.12-.4-.07-.93-.21-.93-.71,0-.46.59-.59,1.11-.65.64-.07,1.54-.07,2.67-.07s2.07,0,2.71.12c.44.08,1.01.25,1.09.81h3.58c-.02-.54-.17-.97-.45-1.33-.3-.37-.75-.66-1.37-.88-1.11-.38-2.77-.55-5.55-.55s-4.33.16-5.48.5Z" />
</svg>