<?xml version="1.0" encoding="utf-8"?>
<!-- Generator: Adobe Illustrator 28.3.0, SVG Export Plug-In . SVG Version: 6.00 Build 0)  -->
<svg version="1.1" id="svg5" xmlns="http://www.w3.org/2000/svg" xmlns:xlink="http://www.w3.org/1999/xlink" x="0px" y="0px"
	 viewBox="0 0 396 396" style="enable-background:new 0 0 396 396;" xml:space="preserve">
<style type="text/css">
	.st0{fill:#FFFFFF;}
</style>
<rect class="st0" width="396" height="396"/>
<path d="M189.1,80.9L153,81c0,36.7-3.6,66.1-9.6,89.9H90.1v54H121c-28.9,45-66.9,45-66.9,45l0,54c0,0,84.1,0,127.6-99h61.4v-54
	h-44.5c2.3-11.2,4.3-23.1,5.7-36h83.8v135h-45v54h99v-243"/>
<path d="M369,0H27H0v396h27h342h27V0H369z M369,369H27V27h342V369z"/>
</svg>
